<?xml version="1.0" standalone="no"?>
<!DOCTYPE svg PUBLIC "-//W3C//DTD SVG 20010904//EN"
 "http://www.w3.org/TR/2001/REC-SVG-20010904/DTD/svg10.dtd">
<svg version="1.0" xmlns="http://www.w3.org/2000/svg"
 width="2000.000000pt" height="2000.000000pt" viewBox="0 0 2000.000000 2000.000000"
 preserveAspectRatio="xMidYMid meet">
<metadata>
Created by potrace 1.14, written by Peter Selinger 2001-2017
</metadata>
<g transform="translate(0.000000,2000.000000) scale(0.100000,-0.100000)"
fill="#000000" stroke="none">
<path d="M9650 17994 c-312 -21 -399 -27 -550 -44 -2684 -301 -5044 -1952
-6260 -4380 -666 -1330 -944 -2825 -804 -4330 144 -1560 765 -3072 1759 -4290
937 -1146 2147 -1999 3539 -2494 1186 -422 2513 -556 3771 -380 1942 272 3702
1237 4978 2728 636 744 1131 1600 1461 2530 422 1186 556 2513 380 3771 -162
1154 -567 2248 -1195 3223 -711 1104 -1708 2036 -2861 2675 -991 550 -2071
875 -3228 973 -172 14 -856 27 -990 18z m3595 -4009 l0 -390 -960 -5 c-948 -5
-961 -5 -1005 -26 -83 -39 -147 -109 -183 -201 -9 -23 -69 -296 -132 -605 -64
-310 -118 -571 -121 -580 -5 -17 44 -18 935 -18 l941 0 0 -395 0 -395 -1027
-2 -1028 -3 -656 -3075 c-361 -1691 -667 -3109 -679 -3150 -63 -219 -172 -382
-335 -503 -195 -146 -411 -203 -669 -177 -329 32 -544 162 -750 454 -24 33
-150 234 -281 445 -198 320 -235 385 -224 396 8 7 156 103 329 214 245 156
317 198 326 188 6 -6 113 -176 238 -377 136 -217 245 -382 270 -407 100 -97
234 -74 298 51 14 27 236 1044 653 2991 l631 2950 -831 5 -830 5 0 390 0 390
919 5 920 5 142 690 c78 380 152 722 164 760 133 420 489 717 910 758 19 2
485 3 1035 3 l1000 -1 0 -390z"/>
</g>
</svg>
